<svg width="795" height="712" xmlns="http://www.w3.org/2000/svg" xmlns:xlink="http://www.w3.org/1999/xlink"><defs><path id="a" d="M0 .126h794.853V756H0z"/></defs><g fill="none" fill-rule="evenodd" opacity=".864"><path d="M658.628 247.67c-32.158-34.167-149.915-5.014-95.536 95.665 55.39 102.552 72.768 136.85 31.182 185.37-41.586 48.521-108.87 12.883-114.415-16.976-5.545-29.859 13.862-48.52 30.683-64.694 16.82-16.174 2.586-34.835-20.98-32.347-23.565 2.488-51.458 41.106-36.21 100.824 15.249 59.717 168.106 85.826 197.217-9.97 29.11-95.797-43.179-159.28-61.2-186.651-18.02-27.37 1.341-68.753 31.958-67.186 0 0 41.907-.34 29.036 31.107-5.185 12.667-11.39 21.387 0 28.614 13.539 8.59 29.777-4.913 29.636-20.65-.197-22.04-8.132-29.04-21.37-43.106" fill="#FFF"/><g transform="translate(0 -44)"><mask id="b" fill="#fff"><use xlink:href="#a"/></mask><path d="M738.373 2.326c-55.252-11.057-77.352 22.116-73.209 42.85 4.144 20.732 31.77 29.026 31.77 29.026-11.05-23.498-16.575-44.231 23.482-45.614 40.058-1.382 55.252 82.934 0 109.196-52.602 25.003-123.986 32.465-276.13-3.852 11.666-24.472 10.198-32.72 30.515-43.11 14.899-4.518 24.832-7.229 28.271-15.667 2.81-6.892-11.95-16.158-57.534 15.633-9.453 6.593-18.846 19.19-28.316 36.448-165.823-41.669-244.888-7.203-276.95 76.894-24.283 81.21 97.433 140.459 140.892 88.462 41.222-49.32-32.398-70.468-40.168-43.054-5.988 21.13 15.637 19.121 15.637 19.121s2.211-1.474-.974-2.423c-3.623-1.08-7.275-8.285-2.816-12.747 7.73-7.736 28.836-4.867 25.399 17.77-4.189 19.653-13.086 30.464-49.607 27.926-61.03-6.365-83.185-112.946-8.595-154.413 48.362-24.107 83.553-17.378 181.472 14.928-19.74 45.211-40.117 107.022-62.311 173.73-92.76-7.804-144.076 4.046-157.49 39.331-11.571 30.436 9.483 44.785 24.288 46.543 11.544.502 14.806-6.53 7.41-3.915-9.71 1.619-18.769-2.045-17.698-17.932 2.257-37.98 42.77-44.018 132.82-36.171-9.858 29.384-20.09 63.449-30.791 93.026C239.725 614.65 155.466 607.74 127.96 604.974c-27.506-2.765-90.082-17.763-88.523-106.43 1.56-88.67 29.535-105.967 58.4-102.609 25.232 4.923 35.82 17.555 37.268 39.794.893 13.712-16.269 9.33-25.5 16.975-5.97 4.943-11.83 19.114.25 28.774 22.336 17.862 46.992-20.255 46.992-47.9 0-27.644-19.623-46.664-59.68-50.81C57.108 378.62 15.92 416.57 4.87 453.89c-11.05 37.32-9.74 134.16 74.624 163.523 70.98 24.705 143.715 9.955 190.862-46.156 44.949-53.494 73.032-122.301 100.729-205.81 13.645.136 26.845 1.787 39.61 2.046-12.075 35.678-26.13 79.971-43.639 139.342-51.36 174.16-124.57 222.538-207.447 217.009-43.793-2.922-51.764-26.803-44.22-41.36 9.21-17.776 22.068-13.82 32.02-14.045 2.388-.055 2.23-1.23 1.515-1.713 0 0-4.575-10.121-26.944-10.121-11.798 0-26.808 11.88-32.817 29.919-13.813 41.467 26.245 73.258 95.31 69.11 69.064-4.146 180.95-53.906 230.676-255.71 13.648-55.387 25.242-98.903 35.365-132.95 3.845.092 12.67.143 16.075.222 60.103 1.382 75.443-45.073 80.968-65.806l.93-3.485c.724-2.722-2.93-4.352-4.465-1.991-10.319 15.873-16.922 28.644-39.878 41.014-8.982 4.84-28.562 7.386-45.98 5.23 22.372-69.695 30.907-95.96 48.945-101.116 15.375-4.396 33.412-3.222 40.304 9.834 2.334 4.757 4.022 13.326 10.01 10.71 2.234-1.78-7.938-28.786-29.056-41.172-17.49-10.26-46.257-8.095-66.962 20.438-12.066 16.629-23.369 48.502-41.974 100.904-13.073-.747-26.52-1.981-39.533-3.392 19.156-59.977 33.315-111.558 36.632-125.941 2.474-10.73 6.796-25.524 12.449-41.33a2507.327 2507.327 0 0 1 22.083 9.539c142.274 62.2 298.36 20.733 328.749-42.85C810.2 74.203 793.625 13.385 738.373 2.327" fill="#FFF" mask="url(#b)"/></g></g></svg>
